<?xml version="1.0" encoding="UTF-8"?>
<svg width="151px" height="30px" viewBox="0 0 151 30" version="1.1" xmlns="http://www.w3.org/2000/svg" xmlns:xlink="http://www.w3.org/1999/xlink">
    <!-- Generator: Sketch 52.6 (67491) - http://www.bohemiancoding.com/sketch -->
    <title>logo_white</title>
    <desc>Created with Sketch.</desc>
    <g id="Page-1" stroke="none" stroke-width="1" fill="none" fill-rule="evenodd">
        <path d="M19.2513655,19.4239167 L19.2513655,29.63225 L12.7349386,29.63225 L12.7349386,19.50725 C12.7349386,17.1739167 11.2687426,16.13225 9.63963589,16.13225 C8.01052919,16.13225 6.78869916,17.0905833 6.78869916,19.4239167 L6.78869916,29.63225 L0.313,29.63225 L0.313,10.2155833 L6.78869916,10.2155833 L6.78869916,13.25725 C7.07379283,12.13225 7.72543551,11.25725 8.70289954,10.63225 C9.68036356,10.00725 10.6578276,9.71558333 11.6352916,9.71558333 C15.0971434,9.71558333 17.3778928,11.0905833 18.4368121,13.8405833 C19.7808251,11.0489167 22.1430299,9.71558333 24.0979579,9.71558333 C29.596193,9.71558333 31.6733041,12.9239167 31.6733041,19.2989167 L31.6733041,29.63225 L25.1976049,29.63225 L25.1976049,19.50725 C25.1976049,17.1739167 23.7314089,16.13225 22.1023022,16.13225 C20.4731955,16.13225 19.2513655,17.0905833 19.2513655,19.4239167 Z M36.3162582,10.2155833 L42.7919574,10.2155833 L42.7919574,29.63225 L36.3162582,29.63225 L36.3162582,10.2155833 Z M35.6238879,3.75725 C35.6238879,1.63225 37.4159052,0.00725 39.533744,0.00725 C41.6923103,0.00725 43.4028724,1.63225 43.4028724,3.75725 C43.4028724,5.88225 41.6923103,7.54891667 39.533744,7.54891667 C37.4159052,7.54891667 35.6238879,5.79891667 35.6238879,3.75725 Z M54.1549766,19.4239167 L54.1549766,29.63225 L47.6792775,29.63225 L47.6792775,10.2155833 L54.1549766,10.2155833 L54.1549766,13.25725 C54.4400703,12.13225 55.1731683,11.2989167 56.2728154,10.6739167 C57.4131901,10.0489167 58.4721094,9.71558333 59.4903011,9.71558333 C64.4998042,9.71558333 67.0656473,13.13225 67.0656473,19.2989167 L67.0656473,29.63225 L60.5899481,29.63225 L60.5899481,19.50725 C60.5899481,17.1739167 59.1237521,16.13225 57.4946454,16.13225 C55.7433557,16.13225 54.1549766,17.13225 54.1549766,19.4239167 Z M71.7086014,10.2155833 L78.1843006,10.2155833 L78.1843006,29.63225 L71.7086014,29.63225 L71.7086014,10.2155833 Z M71.0162311,3.75725 C71.0162311,1.63225 72.8082484,0.00725 74.9260872,0.00725 C77.0846535,0.00725 78.7952156,1.63225 78.7952156,3.75725 C78.7952156,5.88225 77.0846535,7.54891667 74.9260872,7.54891667 C72.8082484,7.54891667 71.0162311,5.79891667 71.0162311,3.75725 Z M102.009986,19.4239167 L102.009986,29.63225 L95.4935593,29.63225 L95.4935593,19.50725 C95.4935593,17.1739167 94.0273633,16.13225 92.3982566,16.13225 C90.7691499,16.13225 89.5473198,17.0905833 89.5473198,19.4239167 L89.5473198,29.63225 L83.0716207,29.63225 L83.0716207,10.2155833 L89.5473198,10.2155833 L89.5473198,13.25725 C89.8324135,12.13225 90.4840562,11.25725 91.4615202,10.63225 C92.4389843,10.00725 93.4164483,9.71558333 94.3939123,9.71558333 C97.8557641,9.71558333 100.136513,11.0905833 101.195433,13.8405833 C102.539446,11.0489167 104.901651,9.71558333 106.856579,9.71558333 C112.354814,9.71558333 114.431925,12.9239167 114.431925,19.2989167 L114.431925,29.63225 L107.956226,29.63225 L107.956226,19.50725 C107.956226,17.1739167 106.49003,16.13225 104.860923,16.13225 C103.231816,16.13225 102.009986,17.0905833 102.009986,19.4239167 Z M132.474282,12.2989167 L132.474282,10.2155833 L138.949981,10.2155833 L138.949981,29.63225 L132.474282,29.63225 L132.474282,27.4239167 C131.293179,29.13225 129.541889,30.00725 127.220412,30.00725 C124.736025,30.00725 122.577458,29.0905833 120.744713,27.2155833 C118.911968,25.3405833 117.975232,22.9239167 117.975232,19.88225 C117.975232,16.8405833 118.911968,14.4239167 120.744713,12.5489167 C122.577458,10.6739167 124.736025,9.71558333 127.220412,9.71558333 C129.216068,9.71558333 131.333907,10.63225 132.474282,12.2989167 Z M125.713489,17.0905833 C124.206565,18.63225 124.206565,21.1739167 125.713489,22.7989167 C127.301868,24.3405833 129.786255,24.3405833 131.293179,22.7989167 C132.881558,21.1739167 132.881558,18.63225 131.293179,17.0905833 C129.786255,15.4655833 127.301868,15.4655833 125.713489,17.0905833 Z M150.313,29.63225 L143.837301,29.63225 L143.837301,0.00725 L150.313,0.00725 L150.313,29.63225 Z" id="logo_white" fill="#F9F9F9"></path>
    </g>
</svg>